<svg width="327" height="91" viewBox="0 0 327 91" fill="none" xmlns="http://www.w3.org/2000/svg">
<g clip-path="url(#clip0)">
<path d="M193.739 0H153.683V91H193.739V0Z" fill="#009FDA"/>
<path d="M259.715 9.73121C252.908 17.0954 248.981 26.8266 247.934 39.1879C247.934 39.4509 247.934 39.7139 247.934 39.7139C246.886 39.1879 245.577 38.9249 245.054 38.9249H215.208V0H250.028C255.526 0 261.024 1.31503 266.26 3.94509C263.904 5.52312 261.548 7.62717 259.715 9.73121Z" fill="#009FDA"/>
<path d="M259.714 20.2514C255.525 27.3526 253.431 34.7168 252.907 42.6069V90.737H288.775V48.6561C289.037 41.0289 292.964 35.7688 299.509 35.7688H327.261V0H292.44C279.874 0.789017 270.187 5.52312 263.641 14.4653C262.071 16.3064 260.762 18.1474 259.714 20.2514Z" fill="#009FDA"/>
<path d="M80.114 32.0867C77.7577 28.9306 75.4014 26.0376 72.5215 22.8815L92.1572 0H137.974C137.974 0 102.891 40.5029 99.4879 44.448C96.3461 48.1301 91.3718 54.7052 91.11 56.8092C90.3245 50.7601 88.2301 44.448 84.8265 39.4509C83.7793 37.0838 82.2084 34.7168 80.114 32.0867Z" fill="#009FDA"/>
<path d="M50.0056 91V70.4855C50.0056 61.8064 46.8639 53.6532 40.5805 47.078L0 0H44.7694L72.5212 32.6127C75.4011 35.7688 78.0192 39.1879 80.1137 42.8699C84.8263 51.0231 87.4444 59.9653 87.7062 69.9595V80.7428V91H50.0056Z" fill="#009FDA"/>
</g>
<defs>
<clipPath id="clip0">
<rect width="327" height="91" fill="white"/>
</clipPath>
</defs>
</svg>
