<svg width="204" height="56" viewBox="0 0 204 56" fill="none" xmlns="http://www.w3.org/2000/svg">
<g clip-path="url(#clip0)">
<path d="M120.772 0H95.9053V56H120.772V0Z" fill="#009FDA"/>
<path d="M161.73 5.98844C157.504 10.5202 155.066 16.5087 154.416 24.1156C154.416 24.2775 154.416 24.4393 154.416 24.4393C153.766 24.1156 152.953 23.9538 152.628 23.9538H134.1V0H155.716C159.129 0 162.543 0.809249 165.793 2.42775C164.33 3.39884 162.868 4.69364 161.73 5.98844Z" fill="#009FDA"/>
<path d="M161.729 12.4624C159.129 16.8324 157.829 21.3642 157.504 26.2197V55.8382H179.77V29.9422C179.933 25.2486 182.371 22.0116 186.434 22.0116H203.662V0H182.046C174.244 0.485549 168.231 3.39884 164.167 8.90174C163.192 10.0347 162.38 11.1676 161.729 12.4624Z" fill="#009FDA"/>
<path d="M50.2344 19.7457C48.7716 17.8035 47.3088 16.0231 45.521 14.0809L57.7107 0H86.1535C86.1535 0 64.3745 24.9249 62.2616 27.3526C60.3112 29.6185 57.2232 33.6647 57.0606 34.9595C56.573 31.237 55.2728 27.3526 53.1599 24.2775C52.5098 22.8208 51.5346 21.3642 50.2344 19.7457Z" fill="#009FDA"/>
<path d="M31.5432 56V43.3757C31.5432 38.0347 29.5929 33.0173 25.6922 28.9711L0.5 0H28.2926L45.5208 20.0694C47.3086 22.0116 48.9339 24.1156 50.2342 26.3815C53.1597 31.3988 54.785 36.9017 54.9476 43.052V49.6879V56H31.5432Z" fill="#009FDA"/>
</g>
<defs>
<clipPath id="clip0">
<rect width="203" height="56" fill="white" transform="translate(0.5)"/>
</clipPath>
</defs>
</svg>
