<svg width="375" height="394" viewBox="0 0 375 394" fill="none" xmlns="http://www.w3.org/2000/svg">
<path d="M59 0H-42V4H59V0Z" fill="white"/>
<path d="M170.113 59.1658C174.039 59.1658 177.169 55.9825 177.169 52.1094C177.169 48.2364 174.039 45 170.113 45H163.056V59.1658H170.113Z" fill="#2E753A"/>
<path d="M163.056 59.1128C166.954 59.1128 170.113 55.9535 170.113 52.0564C170.113 48.1593 166.954 45 163.056 45C159.159 45 156 48.1593 156 52.0564C156 55.9535 159.159 59.1128 163.056 59.1128Z" fill="#589943"/>
<path d="M244.113 393.166C248.039 393.166 251.169 389.983 251.169 386.109C251.169 382.236 248.039 379 244.113 379H237.056V393.166H244.113Z" fill="#2E753A"/>
<path d="M237.056 393.113C240.954 393.113 244.113 389.954 244.113 386.056C244.113 382.159 240.954 379 237.056 379C233.159 379 230 382.159 230 386.056C230 389.954 233.159 393.113 237.056 393.113Z" fill="#589943"/>
<path d="M108.341 319H100.171V333.166H116.512L108.341 319Z" fill="#6DC2E5"/>
<path d="M100.171 319L92 333.166H108.341L100.171 319Z" fill="#BCE6F8"/>
<path d="M335.288 109.166H327.117V95H343.459L335.288 109.166Z" fill="#6DC2E5"/>
<path d="M327.117 109.166L319 95H335.288L327.117 109.166Z" fill="#BCE6F8"/>
<path d="M71 384H-29V388H71V384Z" fill="white"/>
<path d="M59.2222 130H52.1658V144.166H59.2222V130Z" fill="#DC4D6A"/>
<path d="M52.1658 130H38V144.166H52.1658V130Z" fill="#E78324"/>
<path d="M380 322.411H307V326.411H380V322.411Z" fill="white"/>
</svg>
